#VRML V2.0 utf8
# SHT4x DFN-4, Masse aus C7461861.pdf Figure 15
Shape{
    appearance Appearance { material Material {
        diffuseColor 0.18 0.18 0.19
        specularColor 0.05 0.05 0.05
        ambientIntensity 0.3 transparency 0.0 shininess 0.4 } }
    geometry IndexedFaceSet { ccw TRUE solid FALSE
        coord Coordinate { point [ -0.2953 -0.2953 0.0000, 0.2953 -0.2953 0.0000, 0.2953 0.2953 0.0000, -0.2953 0.2953 0.0000, -0.2953 -0.2953 0.2126, 0.2953 -0.2953 0.2126, 0.2953 0.2953 0.2126, -0.2953 0.2953 0.2126 ] }
        coordIndex [ 0, 3, 2, 1, -1, 4, 5, 6, 7, -1, 0, 1, 5, 4, -1, 1, 2, 6, 5, -1, 2, 3, 7, 6, -1, 3, 0, 4, 7, -1, ] } }
Shape{
    appearance Appearance { material Material {
        diffuseColor 0.45 0.45 0.47
        specularColor 0.05 0.05 0.05
        ambientIntensity 0.3 transparency 0.0 shininess 0.4 } }
    geometry IndexedFaceSet { ccw TRUE solid FALSE
        coord Coordinate { point [ 0.0000 0.0000 0.2130, 0.1181 0.0000 0.2130, 0.1141 0.0306 0.2130, 0.1023 0.0591 0.2130, 0.0835 0.0835 0.2130, 0.0591 0.1023 0.2130, 0.0306 0.1141 0.2130, 0.0000 0.1181 0.2130, -0.0306 0.1141 0.2130, -0.0591 0.1023 0.2130, -0.0835 0.0835 0.2130, -0.1023 0.0591 0.2130, -0.1141 0.0306 0.2130, -0.1181 0.0000 0.2130, -0.1141 -0.0306 0.2130, -0.1023 -0.0591 0.2130, -0.0835 -0.0835 0.2130, -0.0591 -0.1023 0.2130, -0.0306 -0.1141 0.2130, -0.0000 -0.1181 0.2130, 0.0306 -0.1141 0.2130, 0.0591 -0.1023 0.2130, 0.0835 -0.0835 0.2130, 0.1023 -0.0591 0.2130, 0.1141 -0.0306 0.2130 ] }
        coordIndex [ 0, 1, 2, -1, 0, 2, 3, -1, 0, 3, 4, -1, 0, 4, 5, -1, 0, 5, 6, -1, 0, 6, 7, -1, 0, 7, 8, -1, 0, 8, 9, -1, 0, 9, 10, -1, 0, 10, 11, -1, 0, 11, 12, -1, 0, 12, 13, -1, 0, 13, 14, -1, 0, 14, 15, -1, 0, 15, 16, -1, 0, 16, 17, -1, 0, 17, 18, -1, 0, 18, 19, -1, 0, 19, 20, -1, 0, 20, 21, -1, 0, 21, 22, -1, 0, 22, 23, -1, 0, 23, 24, -1, 0, 24, 1, -1, ] } }
